<svg preserveAspectRatio="none" width="100%" height="100%" overflow="visible" style="display: block;" viewBox="0 0 20 16" fill="none" xmlns="http://www.w3.org/2000/svg">
<g id="Container">
<path id="Icon" d="M7.5 7L6.55 9.05L4.5 10L6.55 10.95L7.5 13L8.45 10.95L10.5 10L8.45 9.05L7.5 7V7M13.5 7L12.85 8.35L11.5 9L12.85 9.65L13.5 11L14.15 9.65L15.5 9L14.15 8.35L13.5 7V7M2 0L4 4H7L5 0H7L9 4H12L10 0H12L14 4H17L15 0H18C18.55 0 19.0208 0.195833 19.4125 0.5875C19.8042 0.979167 20 1.45 20 2V14C20 14.55 19.8042 15.0208 19.4125 15.4125C19.0208 15.8042 18.55 16 18 16H2C1.45 16 0.979167 15.8042 0.5875 15.4125C0.195833 15.0208 0 14.55 0 14V2C0 1.45 0.195833 0.979167 0.5875 0.5875C0.979167 0.195833 1.45 0 2 0V0V0" fill="var(--fill-0, white)"/>
</g>
</svg>
