<svg preserveAspectRatio="none" width="100%" height="100%" overflow="visible" style="display: block;" viewBox="0 0 20 16" fill="none" xmlns="http://www.w3.org/2000/svg">
<g id="Container">
<path id="Icon" d="M10.6 12.7L12.9 10.95L15.2 12.7L14.35 9.85L16.65 8H13.8L12.9 5.2L12 8H9.15L11.45 9.85L10.6 12.7V12.7M2 16C1.45 16 0.979167 15.8042 0.5875 15.4125C0.195833 15.0208 0 14.55 0 14V2C0 1.45 0.195833 0.979167 0.5875 0.5875C0.979167 0.195833 1.45 0 2 0H8L10 2H18C18.55 2 19.0208 2.19583 19.4125 2.5875C19.8042 2.97917 20 3.45 20 4V14C20 14.55 19.8042 15.0208 19.4125 15.4125C19.0208 15.8042 18.55 16 18 16H2V16M2 14H18V14V14V4V4V4H9.175L7.175 2H2V2V2V14V14V14V14M2 14V14V14V2V2V2V2V4V4V4V4V14V14V14V14V14" fill="var(--fill-0, #94A3B8)"/>
</g>
</svg>
